{"title":"PBS A Year i 720p x264 AC3 HEVCguy","uid":13728203,"size":1161374467,"categoryP":"video","categoryS":"hd___tv_shows","magnet":"?xt=urn:btih:259279608ee7ae8b8ae2b5a08069f2bfff180f4b&amp;dn=PBS+A+Year+i+720p+x264+AC3+HEVCguy&amp;tr=udp%3A%2F%2Ftracker.leechers-paradise.org%3A6969&amp;tr=udp%3A%2F%2Fzer0day.ch%3A1337&amp;tr=udp%3A%2F%2Fopen.demonii.com%3A1337&amp;tr=udp%3A%2F%2Ftracker.coppersurfer.tk%3A6969&amp;tr=udp%3A%2F%2Fexodus.desync.com%3A6969","seeders":0,"leechers":1,"uploader":"HEVCguy","files":1,"time":1456981672,"description":"Follow astronaut Scott Kelly’s record-breaking 12-month mission on the International Space Station, from launch to landing, as NASA charts the effects of long-duration spaceflight by comparing him to his identical twin on Earth, astronaut Mark Kelly.\r\n\r\nFormat : Matroska\r\nFile size : 1.08 GiB\r\nDuration : 55mn 37s\r\nOverall bit rate : 2 784 Kbps\r\n\r\nVideo\r\nFormat : AVC\r\nWidth : 1 280 pixels\r\nHeight : 720 pixels\r\nDisplay aspect ratio : 16:9\r\nFrame rate mode : Constant\r\nFrame rate : 29.970 (30000/1001) fps\r\nColor space : YUV\r\nChroma subsampling : 4:2:0\r\nBit depth : 8 bits\r\nScan type : Progressive\r\nBits/(Pixel*Frame) : 0.087\r\nStream size : 954 MiB (86%)\r\n\r\nAudio\r\nFormat : AC-3\r\nBit rate mode : Constant\r\nBit rate : 384 Kbps\r\nChannel(s) : 2 channels\r\nChannel positions : Front: L R\r\nSampling rate : 48.0 KHz\r\nFrame rate : 31.250 fps (1536 spf)\r\nCompression mode : Lossy\r\nStream size : 153 MiB (14%)\r\nLanguage : English","torrent":{"xt":"urn:btih:259279608ee7ae8b8ae2b5a08069f2bfff180f4b","amp;dn":"PBS+A+Year+i+720p+x264+AC3+HEVCguy","amp;tr":["udp%3A%2F%2Ftracker.leechers-paradise.org%3A6969","udp%3A%2F%2Fzer0day.ch%3A1337","udp%3A%2F%2Fopen.demonii.com%3A1337","udp%3A%2F%2Ftracker.coppersurfer.tk%3A6969","udp%3A%2F%2Fexodus.desync.com%3A6969"],"infoHash":"259279608ee7ae8b8ae2b5a08069f2bfff180f4b","infoHashBuffer":{"type":"Buffer","data":[37,146,121,96,142,231,174,139,138,226,181,160,128,105,242,191,255,24,15,75]},"announce":[],"urlList":[]}}